<?xml version="1.0" encoding="utf-8"?>
<!-- Generator: Adobe Illustrator 24.0.2, SVG Export Plug-In . SVG Version: 6.00 Build 0)  -->
<svg version="1.1" id="Layer_1" xmlns="http://www.w3.org/2000/svg" xmlns:xlink="http://www.w3.org/1999/xlink" x="0px" y="0px"
	 viewBox="0 0 512 512" style="enable-background:new 0 0 512 512;" xml:space="preserve">
<style type="text/css">
	.st0{fill:#C1E8F7;}
	.st1{fill:none;}
	.st2{fill:#FFE6D3;}
	.st3{fill:#554C44;}
	.st4{fill:#F46D44;}
	.st5{fill:#EA5A23;}
	.st6{fill:#E05022;}
</style>
<circle id="XMLID_8254_" class="st0" cx="256.0887" cy="255.7097" r="249.4079"/>
<g id="XMLID_6795_">
	<path id="XMLID_6804_" class="st1" d="M320.0369,201.8392c0.0219-0.4454-0.0037-0.8964,0.0037-1.3419
		c-0.2481-0.6375-0.5044-1.3022-0.7778-2.0191C319.511,199.7874,319.7443,200.9394,320.0369,201.8392z"/>
	<path id="XMLID_6803_" class="st2" d="M216.396,277.4702c3.5249,3.4029,7.2997,6.5646,11.378,9.2847
		c3.4292,2.2873,7.0765,4.2541,10.9147,5.7628c3.4218,1.3437,6.9849,2.3124,10.614,2.8884
		c4.4217,0.7025,8.9913,0.8382,13.4427,0.3876c3.5831-0.3623,7.128-1.0867,10.558-2.1878
		c3.7741-1.2132,7.3943-2.8758,10.8131-4.8786c4.0096-2.347,7.7418-5.1486,11.23-8.2147c1.1238-0.9869,2.222-2.0028,3.2994-3.0424
		c12.2458-11.8238,14.4062-38.3668,16.7588-46.3097c-0.076-0.5196-0.0998-1.0756-0.0616-1.6697
		c0.5938-9.3734,4.2429-18.3595,4.6939-27.6516c-0.2926-0.8998-0.5259-2.0517-0.774-3.3609
		c-3.0045-7.8724-7.6914-20.1542-16.3637-27.3545c-13.9998-11.6228-15.1317-19.4859-15.1317-19.4859
		c-13.9986,1.5844-27.7002,6.6533-50.781,25.0165c-17.6203,14.0205-33.3758,27.9665-41.085,30.6903
		c0.6246,7.2259,1.6171,14.4081,2.644,21.601C201.5714,230.8798,202.3347,263.8936,216.396,277.4702z"/>
	<path id="XMLID_6802_" class="st3" d="M287.7674,151.6378c0,0,1.132,7.8631,15.1317,19.4859
		c8.6724,7.2003,13.3592,19.4822,16.3637,27.3545c0.2733,0.7169,0.5296,1.3815,0.7778,2.0191
		c0.0107-0.7896,0.0478-1.5774,0.0044-2.3722c-0.4591-1.3982-0.7577-3.4336-1.2306-5.6411
		c-0.3668-1.7113-0.8148-3.4047-1.3073-5.0833c-0.7607-2.5932-1.6371-5.1542-2.6151-7.6732
		c-1.2224-3.1473-2.6069-6.2316-4.1599-9.2302c-1.761-3.3995-3.7396-6.6882-5.9545-9.8103
		c-2.384-3.3609-5.0459-6.5283-7.9962-9.4078c-3.1191-3.0442-6.5628-5.7587-10.288-8.0259
		c-4.0059-2.4378-8.3275-4.3464-12.8278-5.6649c-5.0978-1.4958-10.3985-2.2565-15.6973-2.2509
		c-5.5028,0-10.9177,0.6283-16.228,2.1459c-4.5303,1.2929-8.8845,3.18-12.9223,5.6067c-3.7511,2.2527-7.2211,4.9621-10.3647,8.0026
		c-2.9737,2.8758-5.6549,6.045-8.0582,9.4097c-2.2335,3.1277-4.2273,6.4237-6.0013,9.8318
		c-1.5666,3.0116-2.9626,6.1085-4.1962,9.2684c-0.9877,2.5335-1.8715,5.1108-2.6392,7.7185
		c-0.5018,1.7042-0.9591,3.4244-1.3311,5.1631c-0.3631,1.6912-0.6249,3.276-0.9328,4.5563
		c0.0742,3.4518,0.3115,6.8817,0.6068,10.3043c7.7092-2.7238,23.4647-16.6697,41.085-30.6903
		C260.0672,158.2911,273.7688,153.2222,287.7674,151.6378z"/>
	<path id="XMLID_6801_" class="st4" d="M356.4262,484.0406c-0.2997-5.3278-0.5359-9.712-0.3331-13.1567
		c1.0756-18.2616-2.6188-94.789,33.8866-110.9425c0.0252-0.0111,0.0534,0.0034,0.0779-0.0037
		c-0.0137-0.2808-0.056-0.5307-0.1847-0.701c-1.2929-1.7205-17.6251-7.3216-34.22-12.7818
		c2.5988,6.239-10.2334,13.8358-42.2529,29.4118c-34.7325,16.8964-57.3223,15.958-57.3223,15.958s-22.5898,0.9383-57.3212-15.958
		c-30.4677-14.8209-43.5918-22.4196-42.5548-28.4972c-15.5968,5.1594-30.2267,10.2427-31.4472,11.8672
		c-0.1665,0.2229-0.4273,0.458-0.7047,0.701c0.0256,0.007,0.0564-0.0093,0.0816,0.0037
		c36.5054,16.1535,32.811,92.6809,33.8866,110.9425c0.2147,3.6328-0.0567,8.287-0.3802,14.0187
		c30.2048,12.992,63.4749,20.2158,98.44,20.2158C291.7871,505.1183,325.7133,497.5575,356.4262,484.0406z"/>
	<path id="XMLID_6798_" class="st5" d="M198.7564,375.8668c34.7314,16.8964,57.3212,15.958,57.3212,15.958
		s22.5898,0.9383,57.3223-15.958c32.0195-15.576,44.8517-23.1728,42.2529-29.4118c-0.2199-0.5289-0.5107-1.0522-0.9506-1.5648
		c-5.6322-6.5698-25.3455-11.2641-36.6103-29.0999c-11.2623-17.8343-2.8161-27.2206,9.3878-49.7507
		c12.2032-22.5282,13.1415-55.3826,13.1415-92.9817c0-37.601-43.2414-78.7984-84.5437-78.7984s-84.5445,41.1974-84.5445,78.7984
		c0,37.5991,0.9398,70.4535,13.143,92.9817c12.2032,22.5301,20.6512,31.9164,9.3871,49.7507
		c-11.2652,17.8358-30.9773,22.5301-36.6096,29.0999c-0.6917,0.8059-1.1071,1.6282-1.2521,2.4794
		C155.1646,353.4472,168.2887,361.0459,198.7564,375.8668z M195.2946,197.0403c0.3078-1.2803,0.5697-2.8651,0.9328-4.5563
		c0.372-1.7387,0.8293-3.4589,1.3311-5.1631c0.7677-2.6077,1.6516-5.185,2.6392-7.7185c1.2336-3.1599,2.6296-6.2568,4.1962-9.2684
		c1.7739-3.4081,3.7678-6.7041,6.0013-9.8318c2.4033-3.3647,5.0844-6.5339,8.0582-9.4097
		c3.1436-3.0405,6.6136-5.7498,10.3647-8.0026c4.0378-2.4267,8.392-4.3138,12.9223-5.6067
		c5.3103-1.5177,10.7252-2.1459,16.228-2.1459c5.2988-0.0056,10.5995,0.7551,15.6973,2.2509
		c4.5003,1.3185,8.8218,3.2271,12.8278,5.6649c3.7252,2.2672,7.1688,4.9817,10.288,8.0259
		c2.9504,2.8795,5.6122,6.0469,7.9962,9.4078c2.2149,3.1221,4.1936,6.4107,5.9545,9.8103c1.5529,2.9986,2.9374,6.0829,4.1599,9.2302
		c0.978,2.519,1.8544,5.08,2.6151,7.6732c0.4925,1.6786,0.9406,3.3721,1.3073,5.0833c0.4729,2.2075,0.7715,4.2429,1.2306,5.6411
		c0.0434,0.7948,0.0063,1.5826-0.0044,2.3722c-0.0074,0.4454,0.0182,0.8964-0.0037,1.3419
		c-0.451,9.2921-4.1001,18.2783-4.6939,27.6516c-0.0382,0.5941-0.0145,1.1501,0.0616,1.6697
		c-2.3525,7.9429-4.5129,34.4859-16.7588,46.3097c-1.0774,1.0396-2.1756,2.0555-3.2994,3.0424
		c-3.4882,3.0661-7.2204,5.8678-11.23,8.2147c-3.4188,2.0028-7.039,3.6654-10.8131,4.8786
		c-3.4299,1.1011-6.9749,1.8255-10.558,2.1878c-4.4514,0.4506-9.021,0.3149-13.4427-0.3876
		c-3.6291-0.576-7.1922-1.5447-10.614-2.8884c-3.8383-1.5088-7.4855-3.4756-10.9147-5.7628
		c-4.0782-2.7201-7.8531-5.8818-11.378-9.2847c-14.0613-13.5766-14.8246-46.5904-17.8506-48.5246
		c-1.027-7.1929-2.0195-14.3751-2.644-21.601C195.6061,203.9221,195.3688,200.4921,195.2946,197.0403z"/>
	<path id="XMLID_6797_" class="st6" d="M356.0931,470.8839c-0.2029,3.4448,0.0334,7.829,0.3331,13.1567
		c21.4245-9.4297,41.2864-21.7479,59.0473-36.525c-9.6018-47.0833-20.4776-89.291-25.4159-87.5779
		c-0.0245,0.007-0.0527-0.0074-0.0779,0.0037C353.4743,376.0949,357.1687,452.6223,356.0931,470.8839z"/>
	<path id="XMLID_6796_" class="st6" d="M158.0178,470.8839c-1.0756-18.2616,2.6188-94.789-33.8866-110.9425
		c-0.0252-0.013-0.056,0.0034-0.0816-0.0037c-4.9891-1.7061-16.0266,41.3313-25.6937,88.9543
		c17.8659,14.6035,37.7938,26.7693,59.2817,36.0106C157.961,479.1709,158.2325,474.5167,158.0178,470.8839z"/>
</g>
</svg>
